HIERARCHY
ROOT Hips
{
  OFFSET 5.80788e-005 67.184 3.4734
  CHANNELS 6 Xposition Yposition Zposition Zrotation Xrotation Yrotation
  JOINT Chest
  {
    OFFSET 0 8.7983 -4.7612
    CHANNELS 3 Zrotation Xrotation Yrotation
    JOINT Chest2
    {
      OFFSET 0 8.0291 0.4195
      CHANNELS 3 Zrotation Xrotation Yrotation
      JOINT Chest3
      {
        OFFSET 0 9.9351 -2.2114
        CHANNELS 3 Zrotation Xrotation Yrotation
        JOINT Neck
        {
          OFFSET 0 22.3885 -0.4656
          CHANNELS 3 Zrotation Xrotation Yrotation
          JOINT Head
          {
            OFFSET -0.0001 12.643 3.4389
            CHANNELS 3 Zrotation Xrotation Yrotation
            End Site
            {
              OFFSET 0.0001 17.6655 0.5274
            }
          }
        }
        JOINT LeftCollar
        {
          OFFSET 2.2603 21.606 7.4023
          CHANNELS 3 Zrotation Xrotation Yrotation
          JOINT LeftShoulder
          {
            OFFSET 13.5163 -1.1332 -5.0146
            CHANNELS 3 Zrotation Xrotation Yrotation
            JOINT LeftElbow
            {
              OFFSET -0.0995 -28.05 -0.2431
              CHANNELS 3 Zrotation Xrotation Yrotation
              JOINT LeftWrist
              {
                OFFSET 0.0679 -23.3996 -0.1402
                CHANNELS 3 Zrotation Xrotation Yrotation
                JOINT LeftFinger1
                {
                  OFFSET 0.7932 -9.069 2.5189
                  CHANNELS 3 Zrotation Xrotation Yrotation
                  JOINT LeftFinger11
                  {
                    OFFSET -0.8272 -3.3923 0.5977
                    CHANNELS 3 Zrotation Xrotation Yrotation
                    JOINT LeftFinger12
                    {
                      OFFSET -0.5649 -2.3158 0.4082
                      CHANNELS 3 Zrotation Xrotation Yrotation
                      End Site
                      {
                        OFFSET -0.4919 -1.6479 0.2673
                      }
                    }
                  }
                }
                JOINT LeftFinger2
                {
                  OFFSET 0.9159 -9.2044 0.2193
                  CHANNELS 3 Zrotation Xrotation Yrotation
                  JOINT LeftFinger21
                  {
                    OFFSET 0.0117 -4.1944 -0.0248
                    CHANNELS 3 Zrotation Xrotation Yrotation
                    JOINT LeftFinger22
                    {
                      OFFSET 0.0071 -2.3249 -0.0142
                      CHANNELS 3 Zrotation Xrotation Yrotation
                      End Site
                      {
                        OFFSET -0.1475 -2.0882 0.0028
                      }
                    }
                  }
                }
                JOINT LeftFinger3
                {
                  OFFSET 0.6113 -8.7231 -2.0637
                  CHANNELS 3 Zrotation Xrotation Yrotation
                  JOINT LeftFinger31
                  {
                    OFFSET -0.1927 -3.8059 -0.2383
                    CHANNELS 3 Zrotation Xrotation Yrotation
                    JOINT LeftFinger32
                    {
                      OFFSET -0.1091 -2.1688 -0.1362
                      CHANNELS 3 Zrotation Xrotation Yrotation
                      End Site
                      {
                        OFFSET -0.2358 -1.9176 -0.0906
                      }
                    }
                  }
                }
                JOINT LeftFinger4
                {
                  OFFSET -0.6151 -8.0947 -3.5641
                  CHANNELS 3 Zrotation Xrotation Yrotation
                  JOINT LeftFinger41
                  {
                    OFFSET -0.4882 -2.341 -0.6462
                    CHANNELS 3 Zrotation Xrotation Yrotation
                    JOINT LeftFinger42
                    {
                      OFFSET -0.3575 -1.7167 -0.4742
                      CHANNELS 3 Zrotation Xrotation Yrotation
                      End Site
                      {
                        OFFSET -0.4187 -1.5237 -0.3496
                      }
                    }
                  }
                }
                JOINT LeftFinger0
                {
                  OFFSET -1.42 -1.8761 1.4223
                  CHANNELS 3 Zrotation Xrotation Yrotation
                  JOINT LeftFinger01
                  {
                    OFFSET -1.1471 -3.4929 2.6334
                    CHANNELS 3 Zrotation Xrotation Yrotation
                    JOINT LeftFinger02
                    {
                      OFFSET -0.823 -2.3 1.6571
                      CHANNELS 3 Zrotation Xrotation Yrotation
                      End Site
                      {
                        OFFSET -0.5822 -1.6914 1.1582
                      }
                    }
                  }
                }
              }
            }
          }
        }
        JOINT RightCollar
        {
          OFFSET -2.2603 21.606 7.4023
          CHANNELS 3 Zrotation Xrotation Yrotation
          JOINT RightShoulder
          {
            OFFSET -13.5187 -1.1334 -5.0155
            CHANNELS 3 Zrotation Xrotation Yrotation
            JOINT RightElbow
            {
              OFFSET 0.0994 -28.0499 -0.2431
              CHANNELS 3 Zrotation Xrotation Yrotation
              JOINT RightWrist
              {
                OFFSET -0.0679 -23.3996 -0.1402
                CHANNELS 3 Zrotation Xrotation Yrotation
                JOINT RightFinger1
                {
                  OFFSET -0.7932 -9.0691 2.5189
                  CHANNELS 3 Zrotation Xrotation Yrotation
                  JOINT RightFinger11
                  {
                    OFFSET 0.8272 -3.3923 0.5977
                    CHANNELS 3 Zrotation Xrotation Yrotation
                    JOINT RightFinger12
                    {
                      OFFSET 0.565 -2.3158 0.4082
                      CHANNELS 3 Zrotation Xrotation Yrotation
                      End Site
                      {
                        OFFSET 0.4919 -1.6479 0.2673
                      }
                    }
                  }
                }
                JOINT RightFinger2
                {
                  OFFSET -0.916 -9.2044 0.2193
                  CHANNELS 3 Zrotation Xrotation Yrotation
                  JOINT RightFinger21
                  {
                    OFFSET -0.0117 -4.1944 -0.0248
                    CHANNELS 3 Zrotation Xrotation Yrotation
                    JOINT RightFinger22
                    {
                      OFFSET -0.0071 -2.3249 -0.0142
                      CHANNELS 3 Zrotation Xrotation Yrotation
                      End Site
                      {
                        OFFSET 0.1475 -2.0882 0.0028
                      }
                    }
                  }
                }
                JOINT RightFinger3
                {
                  OFFSET -0.6113 -8.7231 -2.0637
                  CHANNELS 3 Zrotation Xrotation Yrotation
                  JOINT RightFinger31
                  {
                    OFFSET 0.1927 -3.8059 -0.2383
                    CHANNELS 3 Zrotation Xrotation Yrotation
                    JOINT RightFinger32
                    {
                      OFFSET 0.1091 -2.1688 -0.1362
                      CHANNELS 3 Zrotation Xrotation Yrotation
                      End Site
                      {
                        OFFSET 0.2358 -1.9176 -0.0906
                      }
                    }
                  }
                }
                JOINT RightFinger4
                {
                  OFFSET 0.6151 -8.0947 -3.564
                  CHANNELS 3 Zrotation Xrotation Yrotation
                  JOINT RightFinger41
                  {
                    OFFSET 0.4882 -2.341 -0.6462
                    CHANNELS 3 Zrotation Xrotation Yrotation
                    JOINT RightFinger42
                    {
                      OFFSET 0.3574 -1.7166 -0.4742
                      CHANNELS 3 Zrotation Xrotation Yrotation
                      End Site
                      {
                        OFFSET 0.4187 -1.5237 -0.3496
                      }
                    }
                  }
                }
                JOINT RightFinger0
                {
                  OFFSET 1.4199 -1.8761 1.4221
                  CHANNELS 3 Zrotation Xrotation Yrotation
                  JOINT RightFinger01
                  {
                    OFFSET 1.1472 -3.4929 2.6336
                    CHANNELS 3 Zrotation Xrotation Yrotation
                    JOINT RightFinger02
                    {
                      OFFSET 0.8229 -2.3 1.6571
                      CHANNELS 3 Zrotation Xrotation Yrotation
                      End Site
                      {
                        OFFSET 0.5822 -1.6914 1.1582
                      }
                    }
                  }
                }
              }
            }
          }
        }
      }
    }
  }
  JOINT RightHip
  {
    OFFSET -9.412 3.9771 -0.7758
    CHANNELS 3 Zrotation Xrotation Yrotation
    JOINT RightKnee
    {
      OFFSET -0.7531 -40.938 0
      CHANNELS 3 Zrotation Xrotation Yrotation
      JOINT RightAnkle
      {
        OFFSET 0 -40.1986 0
        CHANNELS 3 Zrotation Xrotation Yrotation
        JOINT RightToe
        {
          OFFSET 0 -4.4182 9.239
          CHANNELS 3 Zrotation Xrotation Yrotation
          End Site
          {
            OFFSET 0 0 6.1981
          }
        }
      }
    }
  }
  JOINT LeftHip
  {
    OFFSET 9.4119 3.9773 -0.7758
    CHANNELS 3 Zrotation Xrotation Yrotation
    JOINT LeftKnee
    {
      OFFSET 0.7532 -40.9383 0
      CHANNELS 3 Zrotation Xrotation Yrotation
      JOINT LeftAnkle
      {
        OFFSET 0 -40.1986 0
        CHANNELS 3 Zrotation Xrotation Yrotation
        JOINT LeftToe
        {
          OFFSET 0 -4.4182 9.239
          CHANNELS 3 Zrotation Xrotation Yrotation
          End Site
          {
            OFFSET 0 0 6.1981
          }
        }
      }
    }
  }
}
MOTION
Frames:	6
Frame Time:	0.0333333
1.63382 40.8822 1.55675 8.59163e-008 32.9236 -5.02432e-007 -1.27926 -1.0165 -1.77604 -2.59001 -1.99262 -3.57516 -2.59 -1.99262 -3.57515 -2.73772e-005 8.22755 -5.3063e-005 -0.0630123 13.7399 0.00958842 -11.2818 -4.31813 -52.2376 38.6361 32.9619 28.2036 -50.7907 -44.9338 -29.1455 38.5184 -21.3906 34.2753 -1.59028e-015 -2.22639e-014 9.93923e-016 -3.97569e-016 -1.27222e-014 2.5842e-015 -7.95139e-016 -1.27222e-014 1.39149e-015 -1.59028e-015 -2.22639e-014 9.93923e-016 -0.0128181 0.00231988 8.79383e-005 -7.95139e-016 9.54166e-015 -5.96354e-016 -1.59028e-015 -2.22639e-014 9.93923e-016 -0.0160517 0.00300582 0.000857988 -1.19271e-015 9.54166e-015 -7.95139e-016 -1.59028e-015 -2.22639e-014 9.93923e-016 -0.0125927 0.00312288 0.00282337 -1.19271e-015 -3.18055e-015 7.95139e-016 -1.59028e-015 -2.22639e-014 9.93923e-016 -3.97569e-016 -1.27222e-014 2.5842e-015 -7.95139e-016 -1.27222e-014 1.39149e-015 46.8241 -4.02665 -7.08304 -51.1168 23.617 -19.7035 39.2976 -2.16192 15.9511 30.7953 -16.5328 -47.1164 -4.77083e-015 0 -0 -4.77083e-015 -3.57812e-015 -0 -4.77083e-015 -7.05686e-015 -0 -4.77083e-015 0 -0 0.0129426 0.00232084 -8.21493e-005 1.59028e-015 -3.57812e-015 7.95139e-016 -4.77083e-015 0 -0 0.0163307 0.00304779 -0.000869437 -2.91316e-007 -6.093e-006 -7.84379e-006 -4.77083e-015 0 -0 0.0145501 0.00367021 -0.00325986 6.31877e-006 -6.18407e-007 2.98853e-006 -4.77083e-015 0 -0 -4.77083e-015 -3.57812e-015 -0 -4.77083e-015 -7.05686e-015 -0 -59.8171 -18.137 -20.3782 -174.16 87.5362 172.603 49.1536 37.1268 -54.7258 1.97129e-006 1.07842e-007 2.78826e-006 59.7755 -18.1706 20.3028 175.512 87.5376 -173.946 -49.2565 37.0902 54.7836 1.24056e-005 -4.60629e-006 -6.69518e-006 
1.63381 40.9133 1.30964 -9.02427e-007 33.3493 -3.53987e-007 -1.27927 -1.01651 -1.77605 -2.59002 -1.99263 -3.57517 -2.59002 -1.99263 -3.57518 -3.26101e-006 7.59262 -6.27845e-006 -0.0618791 12.7181 0.00958901 -11.1802 -4.50408 -52.268 38.6344 32.9431 28.2037 -51.2879 -45.128 -29.5344 38.6372 -21.2705 34.1962 -7.95139e-016 1.59028e-014 2.18663e-015 -2.75869e-031 1.59028e-014 9.93923e-016 -1.19271e-015 1.27222e-014 3.97569e-016 -7.95139e-016 1.59028e-014 2.18663e-015 -0.0128219 0.00232137 8.50033e-005 2.64834e-031 6.36111e-015 -2.38542e-015 -7.95139e-016 1.59028e-014 2.18663e-015 -0.0160544 0.00299055 0.000850347 3.97569e-016 -3.18055e-015 2.18663e-015 -7.95139e-016 1.59028e-014 2.18663e-015 -0.0125777 0.00311681 0.00282456 -5.10748e-006 -2.61385e-006 6.24445e-006 -7.95139e-016 1.59028e-014 2.18663e-015 -2.75869e-031 1.59028e-014 9.93923e-016 -1.19271e-015 1.27222e-014 3.97569e-016 46.8241 -4.02661 -7.08302 -51.0982 23.8107 -19.7354 39.2976 -2.16199 15.9511 30.7953 -16.5328 -47.1163 -1.82074e-031 6.55989e-015 1.59028e-015 -1.86614e-006 2.06607e-006 -1.09491e-005 3.18055e-015 5.96354e-015 -0 -1.82074e-031 6.55989e-015 1.59028e-015 0.0129639 0.00234281 -8.77014e-005 -4.77083e-015 -7.55382e-015 3.18055e-015 -1.82074e-031 6.55989e-015 1.59028e-015 0.0163523 0.00303029 -0.000877546 -7.43372e-006 1.46468e-005 -2.38358e-006 -1.82074e-031 6.55989e-015 1.59028e-015 0.0145868 0.00367686 -0.00327277 -3.18055e-015 1.15295e-014 3.18055e-015 -1.82074e-031 6.55989e-015 1.59028e-015 -1.86614e-006 2.06607e-006 -1.09491e-005 3.18055e-015 5.96354e-015 -0 -59.8464 -18.7166 -20.5474 -174.277 87.2353 172.715 49.4813 36.9938 -54.8989 9.85644e-007 -2.6702e-006 1.39413e-006 59.8048 -18.7492 20.4721 175.482 87.2373 -173.911 -49.5829 36.9568 54.9556 -3.97569e-016 -9.54166e-015 -8.94531e-016 
1.63381 40.9448 1.06261 3.16751e-008 33.7749 -5.69766e-008 -1.27928 -1.01652 -1.77607 -2.59005 -1.99264 -3.57521 -2.59005 -1.99265 -3.5752 5.55894e-005 6.95695 8.90049e-005 -0.0607412 11.6931 0.00958514 -11.0788 -4.69005 -52.298 38.6348 32.921 28.2026 -51.7855 -45.3175 -29.9229 38.7562 -21.1505 34.1168 7.95139e-016 -6.36111e-015 -2.78299e-015 -0 -6.36111e-015 -0 7.95139e-016 3.18055e-015 5.96354e-016 7.95139e-016 -6.36111e-015 -2.78299e-015 -0.0128223 0.0023266 9.02556e-005 7.95139e-016 -6.36111e-015 3.97569e-016 7.95139e-016 -6.36111e-015 -2.78299e-015 -0.0160499 0.00299278 0.000852153 3.97569e-016 9.54166e-015 2.5842e-015 7.95139e-016 -6.36111e-015 -2.78299e-015 -0.0126002 0.00311892 0.00282809 -1.59028e-015 9.54166e-015 2.98177e-015 7.95139e-016 -6.36111e-015 -2.78299e-015 -0 -6.36111e-015 -0 7.95139e-016 3.18055e-015 5.96354e-016 46.8242 -4.0265 -7.08301 -51.0797 24.0041 -19.7674 39.2976 -2.16183 15.951 30.7953 -16.5328 -47.1164 -1.59028e-015 1.08338e-014 7.95139e-016 5.20051e-007 1.6353e-005 -9.9009e-007 -3.18055e-015 3.08116e-015 3.18055e-015 -1.59028e-015 1.08338e-014 7.95139e-016 0.0129561 0.00232171 -9.19887e-005 -1.59028e-015 1.39149e-015 7.95139e-016 -1.59028e-015 1.08338e-014 7.95139e-016 0.0163643 0.00304482 -0.000872405 1.59028e-015 -1.2424e-014 7.95139e-016 -1.59028e-015 1.08338e-014 7.95139e-016 0.0145897 0.00367514 -0.00327285 8.27607e-033 -2.98177e-016 1.59028e-015 -1.59028e-015 1.08338e-014 7.95139e-016 5.20051e-007 1.6353e-005 -9.9009e-007 -3.18055e-015 3.08116e-015 3.18055e-015 -59.8776 -19.2959 -20.7175 -174.37 86.9345 172.803 49.8079 36.8598 -55.0707 -2.31663e-006 -2.95856e-006 -2.48362e-006 59.8358 -19.3276 20.6423 175.457 86.9369 -173.881 -49.9083 36.8224 55.1262 7.98575e-007 2.95961e-007 -4.73625e-006 
1.6338 40.9767 0.815656 0 34.2006 -0 -1.27926 -1.01651 -1.77604 -2.59001 -1.99261 -3.57516 -2.59001 -1.99262 -3.57515 -3.00996e-005 6.32046 -5.17652e-005 -0.0595979 10.665 0.0095901 -10.9775 -4.87617 -52.3279 38.6291 32.9086 28.2049 -52.2956 -45.5114 -30.3274 38.8752 -21.0307 34.0373 0 9.54166e-015 -0 7.95139e-016 3.18055e-015 -1.98785e-016 7.95139e-016 6.36111e-015 1.59028e-015 0 9.54166e-015 -0 -0.0128205 0.00231962 8.56364e-005 -7.95139e-016 -9.54166e-015 -3.37934e-015 0 9.54166e-015 -0 -0.016049 0.00299099 0.000857077 3.97569e-016 9.54166e-015 -0 0 9.54166e-015 -0 -0.0125981 0.00311958 0.0028363 3.97569e-016 -6.36111e-015 -3.97569e-016 0 9.54166e-015 -0 7.95139e-016 3.18055e-015 -1.98785e-016 7.95139e-016 6.36111e-015 1.59028e-015 46.8241 -4.02665 -7.08305 -51.0609 24.1976 -19.7995 39.2976 -2.16178 15.951 30.7953 -16.5328 -47.1164 -6.36111e-015 2.88238e-015 3.18055e-015 -4.77083e-015 8.44835e-015 1.59028e-015 -3.18055e-015 1.09332e-015 3.18055e-015 -6.36111e-015 2.88238e-015 3.18055e-015 0.0129635 0.00231789 -8.32086e-005 -1.59028e-015 -3.57812e-015 -0 -6.36111e-015 2.88238e-015 3.18055e-015 0.0163328 0.00305312 -0.000870958 -4.74495e-031 -8.54774e-015 -3.18055e-015 -6.36111e-015 2.88238e-015 3.18055e-015 0.014565 0.00368371 -0.00326233 -1.59028e-015 -3.37934e-015 -1.59028e-015 -6.36111e-015 2.88238e-015 3.18055e-015 -4.77083e-015 8.44835e-015 1.59028e-015 -3.18055e-015 1.09332e-015 3.18055e-015 -59.9104 -19.8751 -20.8886 -174.448 86.6335 172.876 50.1332 36.7247 -55.2411 -1.99397e-005 -1.4798e-006 -4.75522e-006 59.8684 -19.906 20.8134 175.438 86.6364 -173.857 -50.2324 36.6871 55.2955 5.96354e-016 3.18055e-015 -9.93923e-016 
1.6338 41.009 0.568817 -1.07985e-007 34.6262 -1.61841e-007 -1.27928 -1.01652 -1.77606 -2.59003 -1.99262 -3.57519 -2.59003 -1.99264 -3.57519 2.56204e-005 5.68341 4.08824e-005 -0.0584392 9.63407 0.00959661 -10.8762 -5.06225 -52.3572 38.6252 32.8935 28.2061 -52.8067 -45.7008 -30.7321 38.9943 -20.911 33.9576 -3.97569e-016 1.90833e-014 5.96354e-016 -7.95139e-016 2.54444e-014 7.95139e-016 -1.59028e-015 1.27222e-014 5.96354e-016 -3.97569e-016 1.90833e-014 5.96354e-016 -0.0128168 0.00231485 8.55821e-005 9.11347e-007 1.60375e-005 -1.13563e-006 -3.97569e-016 1.90833e-014 5.96354e-016 -0.0160499 0.00300118 0.000857928 -3.97569e-016 1.27222e-014 -3.97569e-016 -3.97569e-016 1.90833e-014 5.96354e-016 -0.0126014 0.0031266 0.00282964 3.97569e-016 1.59028e-014 2.18663e-015 -3.97569e-016 1.90833e-014 5.96354e-016 -7.95139e-016 2.54444e-014 7.95139e-016 -1.59028e-015 1.27222e-014 5.96354e-016 46.8242 -4.02655 -7.083 -51.0419 24.3911 -19.8317 39.2976 -2.16169 15.9509 30.7953 -16.5328 -47.1163 3.18055e-015 -9.93923e-016 -2.38542e-015 3.18055e-015 -1.00386e-014 -7.95139e-016 3.18055e-015 -3.37934e-015 -4.77083e-015 3.18055e-015 -9.93923e-016 -2.38542e-015 0.0129857 0.00228601 -9.14529e-005 -1.59028e-015 1.10325e-014 1.59028e-015 3.18055e-015 -9.93923e-016 -2.38542e-015 0.0163562 0.00302949 -0.000877999 -1.59028e-015 1.2921e-015 -0 3.18055e-015 -9.93923e-016 -2.38542e-015 0.0145712 0.00367157 -0.00324839 1.59028e-015 -4.07509e-015 -7.95139e-016 3.18055e-015 -9.93923e-016 -2.38542e-015 3.18055e-015 -1.00386e-014 -7.95139e-016 3.18055e-015 -3.37934e-015 -4.77083e-015 -59.9448 -20.4542 -21.0606 -174.513 86.3324 172.935 50.4575 36.5887 -55.4102 -9.85489e-007 2.67068e-006 -1.39424e-006 59.9028 -20.484 20.9855 175.422 86.3359 -173.837 -50.5555 36.5508 55.4634 -6.37257e-007 -6.5367e-006 -1.69719e-006 
1.63379 41.0417 0.322065 -8.5324e-007 35.0517 -4.05902e-007 -1.27927 -1.01651 -1.77605 -2.59002 -1.99262 -3.57517 -2.59002 -1.99263 -3.57517 -2.06148e-006 5.04565 -3.96744e-006 -0.0567685 8.60041 0.00882064 -10.7751 -5.24841 -52.3864 38.6224 32.8764 28.2068 -53.3195 -45.8862 -31.138 39.1134 -20.7915 33.8777 3.97569e-016 -3.18055e-015 2.5842e-015 3.97569e-016 6.36111e-015 3.77691e-015 3.97569e-016 -9.54166e-015 3.37934e-015 3.97569e-016 -3.18055e-015 2.5842e-015 -0.0127902 0.00232712 8.66231e-005 -1.19271e-015 -3.18055e-015 5.96354e-016 3.97569e-016 -3.18055e-015 2.5842e-015 -0.01605 0.00300349 0.000852617 0 0 -5.96354e-016 3.97569e-016 -3.18055e-015 2.5842e-015 -0.0125823 0.0031229 0.00282274 -3.97569e-016 3.18055e-015 1.98785e-015 3.97569e-016 -3.18055e-015 2.5842e-015 3.97569e-016 6.36111e-015 3.77691e-015 3.97569e-016 -9.54166e-015 3.37934e-015 46.8241 -4.0266 -7.08303 -51.0229 24.5851 -19.8641 39.2977 -2.16199 15.9512 30.7953 -16.5328 -47.1164 -1.59028e-015 -1.03368e-014 7.95139e-016 -1.59028e-015 5.1684e-015 -1.59028e-015 -2.20695e-031 -7.95139e-015 -1.59028e-015 -1.59028e-015 -1.03368e-014 7.95139e-016 0.012957 0.00234945 -8.21752e-005 6.36111e-015 -1.11319e-014 -4.77083e-015 -1.59028e-015 -1.03368e-014 7.95139e-016 0.0163 0.00303542 -0.000880234 -1.59028e-015 -1.78906e-015 -2.38542e-015 -1.59028e-015 -1.03368e-014 7.95139e-016 0.0145941 0.0036981 -0.00326424 -1.59028e-015 4.37326e-015 7.95139e-016 -1.59028e-015 -1.03368e-014 7.95139e-016 -1.59028e-015 5.1684e-015 -1.59028e-015 -2.20695e-031 -7.95139e-015 -1.59028e-015 -59.981 -21.033 -21.2336 -174.569 86.0314 172.986 50.7806 36.4518 -55.5779 7.97009e-007 4.37068e-007 -4.73645e-006 59.9388 -21.0618 21.1586 175.409 86.0354 -173.818 -50.8774 36.4135 55.6299 9.84537e-007 -1.06745e-007 1.39494e-006 
